<svg width="30" height="30" viewBox="0 0 30 30" fill="none" xmlns="http://www.w3.org/2000/svg">
<g clip-path="url(#clip0)">
<path d="M12.4466 15.6378C12.4466 15.5204 12.4466 15.4227 12.4466 15.3241C12.4466 11.6529 12.4466 7.9818 12.4466 4.31065C12.4466 3.74751 12.5452 3.6498 13.1117 3.6498C14.3957 3.6498 15.6797 3.64894 16.9637 3.6498C17.4326 3.6498 17.5577 3.77665 17.5577 4.24722C17.5577 7.93637 17.5577 11.6255 17.5586 15.3147C17.5586 15.4192 17.5363 15.5289 17.5886 15.6309C17.6983 15.6061 17.7446 15.5221 17.8063 15.4604C18.5109 14.7584 19.2129 14.0538 19.9174 13.3518C20.2029 13.0672 20.3932 13.0647 20.6777 13.3484C21.6317 14.2989 22.584 15.2529 23.5363 16.2052C23.8423 16.5112 23.844 16.7015 23.5389 17.0067C20.9494 19.5961 18.36 22.1847 15.7706 24.7741C15.6489 24.8958 15.5323 25.0218 15.4072 25.1392C15.1517 25.3809 14.8406 25.3775 14.5946 25.1307C11.8783 22.4152 9.16287 19.6989 6.44744 16.9827C6.16716 16.7024 6.16887 16.5001 6.4483 16.2207C7.40058 15.2684 8.35373 14.3161 9.30601 13.3647C9.60944 13.0621 9.79801 13.0647 10.1049 13.3715C10.8077 14.0744 11.5106 14.7781 12.2143 15.4801C12.2709 15.5358 12.3129 15.6112 12.4466 15.6378Z" fill="white"/>
<path d="M14.9931 27.9511C10.9603 27.9511 6.92656 27.9511 2.8937 27.9503C2.33056 27.9503 1.96113 27.604 1.98598 27.1051C2.0057 26.7066 2.29627 26.3843 2.69313 26.3328C2.81827 26.3166 2.94598 26.32 3.07198 26.32C11.0391 26.3191 19.0054 26.3191 26.9726 26.32C27.0626 26.32 27.1534 26.3174 27.2434 26.3251C27.7106 26.3646 28.0294 26.7186 28.0131 27.1754C27.9977 27.6246 27.6531 27.9486 27.1731 27.9503C26.142 27.9537 25.1117 27.952 24.0806 27.952C21.0523 27.9511 18.0231 27.9511 14.9931 27.9511Z" fill="white"/>
<path d="M15.0008 3.13254C14.3323 3.13254 13.6646 3.13082 12.996 3.13425C12.7971 3.13511 12.606 3.11454 12.5066 2.91654C12.3977 2.70054 12.426 2.47511 12.5297 2.26511C12.6163 2.09025 12.7903 2.09368 12.9548 2.09368C14.1651 2.09368 15.3754 2.09368 16.5857 2.09368C16.7666 2.09368 16.9474 2.08768 17.1274 2.09711C17.4163 2.11254 17.5568 2.27711 17.556 2.57882C17.5543 2.95768 17.4283 3.12739 17.1137 3.13082C16.41 3.13768 15.7054 3.13254 15.0008 3.13254Z" fill="white"/>
</g>
<defs>
<clipPath id="clip0">
<rect width="30" height="30" fill="white"/>
</clipPath>
</defs>
</svg>
