<svg width="30" height="30" viewBox="0 0 30 30" fill="none" xmlns="http://www.w3.org/2000/svg">
<path d="M15.0857 23.28C14.0108 23.28 12.9463 23.0683 11.9532 22.6569C10.96 22.2455 10.0577 21.6426 9.29754 20.8825C8.53743 20.1223 7.93447 19.22 7.5231 18.2268C7.11173 17.2337 6.9 16.1692 6.9 15.0943C6.9 14.0193 7.11173 12.9549 7.5231 11.9617C7.93447 10.9686 8.53743 10.0662 9.29754 9.30611C10.0577 8.546 10.96 7.94304 11.9532 7.53167C12.9463 7.1203 14.0108 6.90857 15.0857 6.90857C16.9548 6.91496 18.7669 7.55224 20.2286 8.71714L16.1143 12.2229L27 13.8V3L23.1429 6.24857C20.9236 4.27344 18.0566 3.18154 15.0857 3.18C13.5098 3.1687 11.9472 3.46792 10.4869 4.06056C9.02671 4.6532 7.69751 5.52767 6.57524 6.63402C5.45297 7.74037 4.55961 9.05694 3.94617 10.5086C3.33272 11.9602 3.01122 13.5184 3 15.0943C3.04919 17.9134 4.08043 20.6271 5.91593 22.7674C7.75142 24.9077 10.2761 26.3405 13.0548 26.8188C15.8335 27.2972 18.692 26.7911 21.1376 25.3877C23.5831 23.9844 25.4624 21.7718 26.4514 19.1314L22.5943 18.5657C21.9142 19.9792 20.8485 21.1718 19.52 22.0059C18.1915 22.84 16.6543 23.2816 15.0857 23.28Z" fill="white"/>
</svg>
