<svg width="30" height="30" viewBox="0 0 30 30" fill="none" xmlns="http://www.w3.org/2000/svg">
<path d="M29.1429 14.0914C28.9234 13.7915 28.6858 13.5052 28.4314 13.2343C26.4009 11.2118 24.004 9.59445 21.3686 8.46854C19.439 7.58627 17.3522 7.09955 15.2314 7.03711C13.7205 7.07091 12.2234 7.3339 10.7914 7.81711C7.87914 8.79853 5.18192 10.329 2.84571 12.3257C2.14778 12.8776 1.5329 13.5271 1.02 14.2543C0.925642 14.3454 0.850599 14.4546 0.799346 14.5753C0.748094 14.6961 0.72168 14.8259 0.72168 14.9571C0.72168 15.0883 0.748094 15.2181 0.799346 15.3389C0.850599 15.4596 0.925642 15.5688 1.02 15.66C1.26701 16.0333 1.55447 16.3782 1.87714 16.6885C4.47004 19.1936 7.6012 21.0729 11.0314 22.1828C13.6122 23.0588 16.4021 23.1067 19.0114 22.32C22.2519 21.3339 25.2364 19.6485 27.7543 17.3828C28.2703 16.9444 28.7361 16.4499 29.1429 15.9085C29.7171 15.1457 29.7257 14.8543 29.1429 14.0914ZM15.1029 21.1371C13.8915 21.1286 12.7098 20.7613 11.7071 20.0817C10.7044 19.402 9.92558 18.4404 9.46906 17.3183C9.01254 16.1962 8.89878 14.9641 9.14216 13.7774C9.38554 12.5907 9.97514 11.5028 10.8365 10.651C11.6978 9.79922 12.7923 9.22181 13.9816 8.9917C15.1709 8.76159 16.4018 8.88911 17.5187 9.35814C18.6356 9.82716 19.5884 10.6167 20.2568 11.6269C20.9253 12.6372 21.2793 13.8229 21.2743 15.0343C21.2562 16.6591 20.5981 18.2113 19.4426 19.3538C18.2872 20.4964 16.7278 21.1372 15.1029 21.1371Z" fill="white"/>
<path d="M11.2971 15.0173C11.2954 14.2558 11.5197 13.5108 11.9416 12.8768C12.3634 12.2428 12.9639 11.7482 13.667 11.4556C14.37 11.163 15.1441 11.0855 15.8912 11.2331C16.6384 11.3806 17.3249 11.7465 17.864 12.2843C18.4031 12.8222 18.7705 13.508 18.9197 14.2548C19.0689 15.0015 18.9932 15.7758 18.7021 16.4795C18.4111 17.1833 17.9178 17.7848 17.2847 18.2081C16.6517 18.6314 15.9072 18.8573 15.1457 18.8573C14.6391 18.8642 14.1363 18.7696 13.6668 18.5792C13.1973 18.3888 12.7707 18.1063 12.412 17.7485C12.0534 17.3906 11.77 16.9646 11.5785 16.4956C11.387 16.0265 11.2914 15.5239 11.2971 15.0173Z" fill="white"/>
</svg>
